<svg width="90" height="55" viewBox="0 0 90 55" fill="none" xmlns="http://www.w3.org/2000/svg">
<path d="M87.2315 20.9877C85.2257 19.7969 80.6292 19.3503 77.0358 19.9457C76.6183 16.9686 74.696 14.364 71.3531 12.0567L69.4311 10.8659L68.0936 12.5777C66.4225 14.8105 65.5868 17.9365 65.8373 20.9136C65.9208 21.9553 66.3387 23.816 67.5923 25.4534C66.4225 26.0488 63.9989 26.7931 60.8233 26.7931H0.401765L0.234758 27.3885C-0.35046 30.3653 -0.35046 39.6685 6.50237 46.8132C11.6837 52.2462 19.3723 55 29.4842 55C51.3794 55 67.5923 45.9942 75.1973 29.6955C78.2059 29.7699 84.6409 29.6955 87.9003 24.1134C87.9838 23.9645 88.1508 23.6668 88.7356 22.5507L89.07 21.9553L87.2315 20.9877ZM48.7052 0H39.5129V7.44247H48.7052V0ZM48.7052 8.93103H39.5129V16.3735H48.7052V8.93073V8.93103ZM37.8411 8.93103H28.6488V16.3735H37.8411V8.93073V8.93103ZM26.977 8.93103H17.7844V16.3735H26.977V8.93073V8.93103ZM16.1129 17.8621H6.92023V25.3045H16.1125V17.8618L16.1129 17.8621ZM26.977 17.8621H17.7844V25.3045H26.977V17.8621ZM37.8411 17.8621H28.6488V25.3045H37.8411V17.8621ZM48.7056 17.8621H39.5126V25.3045H48.7056V17.8621ZM59.5697 17.8621H50.3767V25.3045H59.5697V17.8621Z" fill="#2396ED"/>
</svg>
