<svg width="95" height="95" viewBox="0 0 95 95" fill="none" xmlns="http://www.w3.org/2000/svg">
<g filter="url(#filter0_d_527_234)">
<rect width="87" height="87" rx="43.5" transform="matrix(-1 0 0 1 91 0)" fill="#6E67E8" fill-opacity="0.5"/>
<path d="M65.2783 42.3782C66.1067 42.3782 66.7783 43.0497 66.7783 43.8782C66.7783 44.7066 66.1067 45.3782 65.2783 45.3782L65.2783 42.3782ZM27.9046 44.9388C27.3188 44.353 27.3188 43.4033 27.9046 42.8175L37.4506 33.2716C38.0363 32.6858 38.9861 32.6858 39.5719 33.2716C40.1577 33.8574 40.1577 34.8071 39.5719 35.3929L31.0866 43.8782L39.5719 52.3635C40.1577 52.9492 40.1577 53.899 39.5719 54.4848C38.9861 55.0706 38.0363 55.0706 37.4506 54.4848L27.9046 44.9388ZM65.2783 45.3782L28.9653 45.3782L28.9653 42.3782L65.2783 42.3782L65.2783 45.3782Z" fill="#4700C6"/>
</g>
<defs>
<filter id="filter0_d_527_234" x="0" y="0" width="95" height="95" filterUnits="userSpaceOnUse" color-interpolation-filters="sRGB">
<feFlood flood-opacity="0" result="BackgroundImageFix"/>
<feColorMatrix in="SourceAlpha" type="matrix" values="0 0 0 0 0 0 0 0 0 0 0 0 0 0 0 0 0 0 127 0" result="hardAlpha"/>
<feOffset dy="4"/>
<feGaussianBlur stdDeviation="2"/>
<feComposite in2="hardAlpha" operator="out"/>
<feColorMatrix type="matrix" values="0 0 0 0 0 0 0 0 0 0 0 0 0 0 0 0 0 0 0.25 0"/>
<feBlend mode="normal" in2="BackgroundImageFix" result="effect1_dropShadow_527_234"/>
<feBlend mode="normal" in="SourceGraphic" in2="effect1_dropShadow_527_234" result="shape"/>
</filter>
</defs>
</svg>
