<svg width="32" height="28" viewBox="0 0 32 28" fill="none" xmlns="http://www.w3.org/2000/svg">
<path fill-rule="evenodd" clip-rule="evenodd" d="M16 22.9879C14.98 22.9879 13.105 23.0029 13.105 23.0029H12.805C10.885 26.73 6.7075 26.9925 6.5275 27C6.52 27 6.5125 27 6.505 27C6.325 27 6.1525 26.9025 6.0625 26.7375C5.9725 26.565 5.9875 26.3626 6.1 26.2051C6.115 26.1826 7.8775 23.7228 7.99 20.7981C3.4225 18.4733 1 15.4361 1 11.9939C1 5.93453 7.7275 1 16 1C24.2725 1 31 5.92703 31 11.9939C31 18.0534 24.2725 22.9879 16 22.9879ZM16 2.0049C8.2825 2.0049 1.9975 6.48947 1.9975 11.9939C1.9975 15.9161 5.65 18.5408 8.7175 20.0557C8.74 20.0632 8.755 20.0857 8.77 20.1007C8.8 20.1232 8.83 20.1382 8.86 20.1682C8.8825 20.1907 8.8975 20.2207 8.9125 20.2431C8.9275 20.2731 8.95 20.2956 8.9575 20.3256C8.9725 20.3631 8.9725 20.3931 8.98 20.4306C8.98 20.4531 8.995 20.4756 8.995 20.5056C8.995 20.5131 8.995 20.5206 8.995 20.5281V20.5356C8.9875 22.7629 8.1175 24.7277 7.495 25.8376C8.785 25.5301 10.945 24.6752 12.04 22.2905C12.0475 22.268 12.07 22.253 12.085 22.2305C12.1075 22.2005 12.1225 22.163 12.1525 22.1405C12.175 22.118 12.205 22.103 12.235 22.0805C12.2575 22.0655 12.28 22.043 12.31 22.0355C12.3475 22.0205 12.3925 22.013 12.43 22.013C12.4525 22.013 12.4675 21.998 12.49 21.998H12.505H13.09C13.0825 21.998 14.965 21.983 15.9925 21.983C23.71 21.983 29.995 17.4984 29.995 11.9939C30.0025 6.48947 23.7175 2.0049 16 2.0049Z" fill="black" stroke="black"/>
</svg>
