<svg width="52" height="49" viewBox="0 0 52 49" fill="none" xmlns="http://www.w3.org/2000/svg">
<path d="M23.2581 46.7734C10.4068 45.5458 1.10163 34.5721 2.45899 22.2757C3.81635 9.97928 15.3248 0.993681 28.1761 2.22128C41.0507 3.4511 50.3791 14.4271 49.0218 26.7235C47.6644 39.0199 36.1327 48.0033 23.2581 46.7734ZM27.7076 6.67872C17.4172 5.69575 8.20214 12.8744 7.11527 22.7205C6.02839 32.5665 13.4828 41.3375 23.7732 42.3205C34.0636 43.3034 43.2786 36.1247 44.3655 26.2787C45.4524 16.4327 37.998 7.66169 27.7076 6.67872Z" fill="black"/>
<path d="M25.6753 35.7496L22.1831 35.416L23.6585 22.0504L36.6558 16.201L38.0995 19.1077L26.9663 24.0547L25.6753 35.7496Z" fill="black"/>
</svg>
